<svg aria-hidden="true" style="width:0;height:0;position:absolute;overflow:hidden" xmlns="http://www.w3.org/2000/svg"><defs><symbol id="icon-close" viewBox="0 0 32 32"><path d="M8.921 21.721a.96.96 0 0 0 1.358 1.358l-1.358-1.358zm7.758-5.042a.96.96 0 0 0-1.358-1.358l1.358 1.358zm-1.358-1.358a.96.96 0 0 0 1.358 1.358l-1.358-1.358zm7.758-5.042a.96.96 0 0 0-1.358-1.358l1.358 1.358zm-6.4 5.042a.96.96 0 0 0-1.358 1.358l1.358-1.358zm5.042 7.758a.96.96 0 0 0 1.358-1.358l-1.358 1.358zm-6.4-6.4a.96.96 0 0 0 1.358-1.358l-1.358 1.358zm-5.042-7.758a.96.96 0 0 0-1.358 1.358l1.358-1.358zm0 14.158 6.4-6.4-1.358-1.358-6.4 6.4 1.358 1.358zm6.4-6.4 6.4-6.4-1.358-1.358-6.4 6.4 1.358 1.358zm-1.358 0 6.4 6.4 1.358-1.358-6.4-6.4-1.358 1.358zm1.358-1.358-6.4-6.4-1.358 1.358 6.4 6.4 1.358-1.358z"/></symbol><symbol id="icon-lens" viewBox="0 0 32 32"><path d="M0 13.024Q0 10.4 1.024 7.968t2.784-4.16 4.16-2.752T13.024 0q2.656 0 5.056 1.056t4.16 2.752 2.784 4.16 1.024 5.056q0 3.616-1.984 6.816l7.072 7.04q.864.896.864 2.144t-.864 2.112-2.144.864-2.112-.864l-7.04-7.04q-3.2 1.952-6.816 1.952-2.656 0-5.056-1.024t-4.16-2.784-2.784-4.128T0 13.024zm4 0q0 2.464 1.216 4.544t3.296 3.264 4.512 1.216q1.824 0 3.488-.704t2.88-1.92 1.92-2.88.736-3.52-.736-3.52-1.92-2.848-2.88-1.92T13.024 4q-2.432 0-4.512 1.216T5.216 8.512 4 13.024z"/></symbol><symbol id="icon-slider-left" viewBox="0 0 16 32"><path stroke-width=".314" d="M16 .314.314 16 16 31.686"/></symbol><symbol id="icon-slider-right" viewBox="0 0 16 32"><path stroke-width=".314" d="M.314.314 16 16 .314 31.686"/></symbol></defs></svg>