<svg aria-hidden="true" style="position: absolute; width: 0; height: 0; overflow: hidden;" version="1.1" xmlns="http://www.w3.org/2000/svg" xmlns:xlink="http://www.w3.org/1999/xlink">
<defs>
<symbol id="icon-close" viewBox="0 0 32 32">
<path d="M8.921 21.721c-0.375 0.375-0.375 0.983 0 1.358s0.983 0.375 1.358 0l-1.358-1.358zM16.679 16.679c0.375-0.375 0.375-0.983 0-1.358s-0.983-0.375-1.358 0l1.358 1.358zM15.321 15.321c-0.375 0.375-0.375 0.983 0 1.358s0.983 0.375 1.358 0l-1.358-1.358zM23.079 10.279c0.375-0.375 0.375-0.983 0-1.358s-0.983-0.375-1.358 0l1.358 1.358zM16.679 15.321c-0.375-0.375-0.983-0.375-1.358 0s-0.375 0.983 0 1.358l1.358-1.358zM21.721 23.079c0.375 0.375 0.983 0.375 1.358 0s0.375-0.983 0-1.358l-1.358 1.358zM15.321 16.679c0.375 0.375 0.983 0.375 1.358 0s0.375-0.983 0-1.358l-1.358 1.358zM10.279 8.921c-0.375-0.375-0.983-0.375-1.358 0s-0.375 0.983 0 1.358l1.358-1.358zM10.279 23.079l6.4-6.4-1.358-1.358-6.4 6.4 1.358 1.358zM16.679 16.679l6.4-6.4-1.358-1.358-6.4 6.4 1.358 1.358zM15.321 16.679l6.4 6.4 1.358-1.358-6.4-6.4-1.358 1.358zM16.679 15.321l-6.4-6.4-1.358 1.358 6.4 6.4 1.358-1.358z"></path>
</symbol>
<symbol id="icon-lens" viewBox="0 0 32 32">
<path d="M0 13.024q0-2.624 1.024-5.056t2.784-4.16 4.16-2.752 5.056-1.056q2.656 0 5.056 1.056t4.16 2.752 2.784 4.16 1.024 5.056q0 3.616-1.984 6.816l7.072 7.040q0.864 0.896 0.864 2.144t-0.864 2.112-2.144 0.864-2.112-0.864l-7.040-7.040q-3.2 1.952-6.816 1.952-2.656 0-5.056-1.024t-4.16-2.784-2.784-4.128-1.024-5.088zM4 13.024q0 2.464 1.216 4.544t3.296 3.264 4.512 1.216q1.824 0 3.488-0.704t2.88-1.92 1.92-2.88 0.736-3.52-0.736-3.52-1.92-2.848-2.88-1.92-3.488-0.736q-2.432 0-4.512 1.216t-3.296 3.296-1.216 4.512z"></path>
</symbol>
<symbol id="icon-slider-left" viewBox="0 0 16 32">
<path stroke-linejoin="miter" stroke-linecap="butt" stroke-miterlimit="4" stroke-width="0.3137" d="M16 0.314l-15.686 15.686 15.686 15.686"></path>
</symbol>
<symbol id="icon-slider-right" viewBox="0 0 16 32">
<path stroke-linejoin="miter" stroke-linecap="butt" stroke-miterlimit="4" stroke-width="0.3137" d="M0.314 0.314l15.686 15.686-15.686 15.686"></path>
</symbol>
</defs>
</svg>
